<?xml version="1.0" standalone="no"?>
<!DOCTYPE svg PUBLIC "-//W3C//DTD SVG 20010904//EN"
 "http://www.w3.org/TR/2001/REC-SVG-20010904/DTD/svg10.dtd">
<svg version="1.0" xmlns="http://www.w3.org/2000/svg"
 width="708.000000pt" height="708.000000pt" viewBox="0 0 708.000000 708.000000"
 preserveAspectRatio="xMidYMid meet">
<metadata>
Created by potrace 1.14, written by Peter Selinger 2001-2017
</metadata>
<g transform="translate(0.000000,708.000000) scale(0.100000,-0.100000)"
fill="#000000" stroke="none">
<path d="M5920 4159 c-182 -27 -300 -141 -300 -291 l0 -38 130 0 130 0 13 33
c22 51 53 72 104 72 37 0 49 -5 69 -28 30 -35 31 -85 3 -121 -11 -15 -46 -44
-77 -65 -104 -71 -129 -114 -139 -242 l-6 -79 127 0 126 0 0 32 c0 45 34 109
73 136 186 130 208 159 215 281 4 64 1 86 -18 129 -28 65 -93 124 -164 151
-47 17 -188 43 -219 40 -7 -1 -37 -5 -67 -10z"/>
<path d="M3319 3943 c0 -165 -3 -204 -12 -189 -28 45 -73 89 -111 109 -61 32
-173 30 -242 -5 -103 -54 -165 -153 -185 -300 -23 -167 20 -334 107 -422 60
-60 114 -81 209 -81 70 0 86 4 128 28 26 15 60 47 75 69 l27 42 3 -67 3 -67
144 0 145 0 0 545 0 545 -145 0 -145 0 -1 -207z m-60 -299 c82 -58 82 -290 0
-348 -14 -9 -43 -16 -70 -16 -41 0 -51 4 -77 35 -35 39 -47 84 -46 165 2 115
48 180 128 180 23 0 52 -7 65 -16z"/>
<path d="M1192 3880 c-146 -31 -256 -131 -296 -269 -23 -79 -21 -223 4 -302
38 -121 130 -209 254 -244 83 -24 259 -17 337 14 74 28 146 92 175 156 41 87
43 85 -104 85 -124 0 -129 -1 -152 -25 -50 -53 -142 -57 -199 -9 -25 21 -51
75 -51 107 0 4 122 7 271 7 l272 0 -7 86 c-15 198 -94 318 -245 375 -63 23
-193 33 -259 19z m198 -236 c16 -16 32 -41 35 -56 l7 -28 -136 0 c-75 0 -136
2 -136 5 0 25 35 78 62 95 49 31 129 24 168 -16z"/>
<path d="M2273 3876 c-69 -23 -112 -55 -143 -110 l-30 -51 0 83 0 82 -140 0
-140 0 0 -410 0 -410 145 0 145 0 0 246 c0 207 3 251 16 280 29 60 102 81 165
48 54 -27 59 -57 59 -329 l0 -245 146 0 145 0 -3 313 -3 312 -27 51 c-30 57
-84 109 -136 131 -49 21 -150 25 -199 9z"/>
<path d="M4030 3876 c-164 -35 -275 -160 -300 -336 -30 -210 62 -395 228 -462
49 -19 75 -23 187 -23 99 0 142 4 180 18 100 35 195 131 211 215 l7 32 -134 0
c-125 0 -135 -1 -147 -21 -28 -45 -117 -62 -177 -33 -40 19 -61 48 -70 98 l-7
36 267 0 267 0 -4 103 c-3 88 -8 111 -34 167 -81 171 -266 252 -474 206z m179
-209 c27 -14 56 -51 66 -84 l6 -23 -136 0 -137 0 7 28 c7 31 41 70 70 82 30
13 97 11 124 -3z"/>
<path d="M5135 3881 c-83 -23 -134 -61 -168 -125 l-22 -41 -3 83 -3 82 -134 0
-135 0 0 -410 0 -410 145 0 145 0 0 250 c0 205 3 256 15 280 28 54 105 76 164
46 52 -27 56 -49 59 -323 l3 -253 145 0 145 0 -3 308 -3 307 -28 57 c-46 93
-125 146 -230 153 -34 2 -75 0 -92 -4z"/>
<path d="M5911 3318 c-136 -71 -85 -272 69 -272 84 0 145 61 145 144 0 112
-114 180 -214 128z"/>
</g>
</svg>
